<?xml version="1.0" encoding="UTF-8" standalone="no"?>
<!DOCTYPE svg PUBLIC "-//W3C//DTD SVG 1.1//EN"
 "http://www.w3.org/Graphics/SVG/1.1/DTD/svg11.dtd">
<!-- Generated by graphviz version 2.38.0 (20140413.2041)
 -->
<!-- Title: dependency&#45;cruiser output Pages: 1 -->
<svg width="635pt" height="420pt"
 viewBox="0.00 0.00 634.50 419.69" xmlns="http://www.w3.org/2000/svg" xmlns:xlink="http://www.w3.org/1999/xlink">
<g id="graph0" class="graph" transform="scale(1 1) rotate(0) translate(4 415.693)">
<title>dependency&#45;cruiser output</title>
<polygon fill="white" stroke="none" points="-4,4 -4,-415.693 630.5,-415.693 630.5,4 -4,4"/>
<g id="clust1" class="cluster"><title>cluster_/node_modules</title>
<path fill="none" stroke="black" stroke-width="2" d="M272,-117.693C272,-117.693 481.5,-117.693 481.5,-117.693 487.5,-117.693 493.5,-123.693 493.5,-129.693 493.5,-129.693 493.5,-191.693 493.5,-191.693 493.5,-197.693 487.5,-203.693 481.5,-203.693 481.5,-203.693 272,-203.693 272,-203.693 266,-203.693 260,-197.693 260,-191.693 260,-191.693 260,-129.693 260,-129.693 260,-123.693 266,-117.693 272,-117.693"/>
<text text-anchor="middle" x="376.75" y="-192.493" font-family="Helvetica,sans-Serif" font-weight="bold" font-size="9.00">node_modules</text>
</g>
<g id="clust2" class="cluster"><title>cluster_/node_modules/arepl&#45;backend</title>
<path fill="none" stroke="black" stroke-width="2" d="M280,-125.693C280,-125.693 334,-125.693 334,-125.693 340,-125.693 346,-131.693 346,-137.693 346,-137.693 346,-165.693 346,-165.693 346,-171.693 340,-177.693 334,-177.693 334,-177.693 280,-177.693 280,-177.693 274,-177.693 268,-171.693 268,-165.693 268,-165.693 268,-137.693 268,-137.693 268,-131.693 274,-125.693 280,-125.693"/>
<text text-anchor="middle" x="307" y="-166.493" font-family="Helvetica,sans-Serif" font-weight="bold" font-size="9.00">arepl&#45;backend</text>
</g>
<g id="clust3" class="cluster"><title>cluster_/node_modules/python&#45;shell</title>
<path fill="none" stroke="black" stroke-width="2" d="M427.5,-125.693C427.5,-125.693 473.5,-125.693 473.5,-125.693 479.5,-125.693 485.5,-131.693 485.5,-137.693 485.5,-137.693 485.5,-165.693 485.5,-165.693 485.5,-171.693 479.5,-177.693 473.5,-177.693 473.5,-177.693 427.5,-177.693 427.5,-177.693 421.5,-177.693 415.5,-171.693 415.5,-165.693 415.5,-165.693 415.5,-137.693 415.5,-137.693 415.5,-131.693 421.5,-125.693 427.5,-125.693"/>
<text text-anchor="middle" x="450.5" y="-166.493" font-family="Helvetica,sans-Serif" font-weight="bold" font-size="9.00">python&#45;shell</text>
</g>
<g id="clust4" class="cluster"><title>cluster_/src</title>
<path fill="none" stroke="black" stroke-width="2" d="M20,-263.693C20,-263.693 606.5,-263.693 606.5,-263.693 612.5,-263.693 618.5,-269.693 618.5,-275.693 618.5,-275.693 618.5,-391.693 618.5,-391.693 618.5,-397.693 612.5,-403.693 606.5,-403.693 606.5,-403.693 20,-403.693 20,-403.693 14,-403.693 8,-397.693 8,-391.693 8,-391.693 8,-275.693 8,-275.693 8,-269.693 14,-263.693 20,-263.693"/>
<text text-anchor="middle" x="313.25" y="-392.493" font-family="Helvetica,sans-Serif" font-weight="bold" font-size="9.00">src</text>
</g>
<!-- buffer -->
<g id="node1" class="node"><title>buffer</title>
<path fill="#ffffcc" stroke="grey" d="M471.5,-255.693C471.5,-255.693 429.5,-255.693 429.5,-255.693 426.5,-255.693 423.5,-252.693 423.5,-249.693 423.5,-249.693 423.5,-243.693 423.5,-243.693 423.5,-240.693 426.5,-237.693 429.5,-237.693 429.5,-237.693 471.5,-237.693 471.5,-237.693 474.5,-237.693 477.5,-240.693 477.5,-243.693 477.5,-243.693 477.5,-249.693 477.5,-249.693 477.5,-252.693 474.5,-255.693 471.5,-255.693"/>
<text text-anchor="middle" x="450.5" y="-244.493" font-family="Helvetica,sans-Serif" font-size="9.00" fill="grey">buffer</text>
</g>
<!-- child_process -->
<g id="node2" class="node"><title>child_process</title>
<path fill="#ffffcc" stroke="grey" d="M614,-119.693C614,-119.693 551,-119.693 551,-119.693 548,-119.693 545,-116.693 545,-113.693 545,-113.693 545,-107.693 545,-107.693 545,-104.693 548,-101.693 551,-101.693 551,-101.693 614,-101.693 614,-101.693 617,-101.693 620,-104.693 620,-107.693 620,-107.693 620,-113.693 620,-113.693 620,-116.693 617,-119.693 614,-119.693"/>
<text text-anchor="middle" x="582.5" y="-108.493" font-family="Helvetica,sans-Serif" font-size="9.00" fill="grey">child_process</text>
</g>
<!-- events -->
<g id="node3" class="node"><title>events</title>
<path fill="#ffffcc" stroke="grey" d="M603.5,-150.693C603.5,-150.693 561.5,-150.693 561.5,-150.693 558.5,-150.693 555.5,-147.693 555.5,-144.693 555.5,-144.693 555.5,-138.693 555.5,-138.693 555.5,-135.693 558.5,-132.693 561.5,-132.693 561.5,-132.693 603.5,-132.693 603.5,-132.693 606.5,-132.693 609.5,-135.693 609.5,-138.693 609.5,-138.693 609.5,-144.693 609.5,-144.693 609.5,-147.693 606.5,-150.693 603.5,-150.693"/>
<text text-anchor="middle" x="582.5" y="-139.493" font-family="Helvetica,sans-Serif" font-size="9.00" fill="grey">events</text>
</g>
<!-- fs -->
<g id="node4" class="node"><title>fs</title>
<path fill="#ffffcc" stroke="grey" d="M471.5,-61.6932C471.5,-61.6932 429.5,-61.6932 429.5,-61.6932 426.5,-61.6932 423.5,-58.6932 423.5,-55.6932 423.5,-55.6932 423.5,-49.6932 423.5,-49.6932 423.5,-46.6932 426.5,-43.6932 429.5,-43.6932 429.5,-43.6932 471.5,-43.6932 471.5,-43.6932 474.5,-43.6932 477.5,-46.6932 477.5,-49.6932 477.5,-49.6932 477.5,-55.6932 477.5,-55.6932 477.5,-58.6932 474.5,-61.6932 471.5,-61.6932"/>
<text text-anchor="middle" x="450.5" y="-50.4932" font-family="Helvetica,sans-Serif" font-size="9.00" fill="grey">fs</text>
</g>
<!-- node_modules/arepl&#45;backend/index.js -->
<g id="node5" class="node"><title>node_modules/arepl&#45;backend/index.js</title>
<g id="a_node5"><a xlink:href="node_modules/arepl-backend/index.js" xlink:title="index.js">
<path fill="#ffffcc" stroke="black" d="M328,-151.693C328,-151.693 286,-151.693 286,-151.693 283,-151.693 280,-148.693 280,-145.693 280,-145.693 280,-139.693 280,-139.693 280,-136.693 283,-133.693 286,-133.693 286,-133.693 328,-133.693 328,-133.693 331,-133.693 334,-136.693 334,-139.693 334,-139.693 334,-145.693 334,-145.693 334,-148.693 331,-151.693 328,-151.693"/>
<text text-anchor="middle" x="307" y="-140.493" font-family="Helvetica,sans-Serif" font-size="9.00">index.js</text>
</a>
</g>
</g>
<!-- node_modules/arepl&#45;backend/index.js&#45;&gt;child_process -->
<g id="edge1" class="edge"><title>node_modules/arepl&#45;backend/index.js&#45;&gt;child_process</title>
<path fill="none" stroke="grey" d="M334.257,-135.222C350.708,-130.847 372.43,-125.621 392,-122.693 440.277,-115.471 496.108,-112.589 534.6,-111.443"/>
<polygon fill="grey" stroke="grey" points="535.075,-114.931 544.977,-111.163 534.886,-107.934 535.075,-114.931"/>
</g>
<!-- node_modules/arepl&#45;backend/index.js&#45;&gt;fs -->
<g id="edge2" class="edge"><title>node_modules/arepl&#45;backend/index.js&#45;&gt;fs</title>
<path fill="none" stroke="grey" d="M315.557,-133.557C329.168,-117.71 359.433,-85.1487 392,-67.6932 398.626,-64.1415 406.14,-61.3964 413.498,-59.2865"/>
<polygon fill="grey" stroke="grey" points="414.508,-62.6412 423.338,-56.7869 412.784,-55.8567 414.508,-62.6412"/>
</g>
<!-- node_modules/python&#45;shell/index.js -->
<g id="node6" class="node"><title>node_modules/python&#45;shell/index.js</title>
<g id="a_node6"><a xlink:href="node_modules/python-shell/index.js" xlink:title="index.js">
<path fill="#ffffcc" stroke="black" d="M471.5,-151.693C471.5,-151.693 429.5,-151.693 429.5,-151.693 426.5,-151.693 423.5,-148.693 423.5,-145.693 423.5,-145.693 423.5,-139.693 423.5,-139.693 423.5,-136.693 426.5,-133.693 429.5,-133.693 429.5,-133.693 471.5,-133.693 471.5,-133.693 474.5,-133.693 477.5,-136.693 477.5,-139.693 477.5,-139.693 477.5,-145.693 477.5,-145.693 477.5,-148.693 474.5,-151.693 471.5,-151.693"/>
<text text-anchor="middle" x="450.5" y="-140.493" font-family="Helvetica,sans-Serif" font-size="9.00">index.js</text>
</a>
</g>
</g>
<!-- node_modules/arepl&#45;backend/index.js&#45;&gt;node_modules/python&#45;shell/index.js -->
<g id="edge5" class="edge"><title>node_modules/arepl&#45;backend/index.js&#45;&gt;node_modules/python&#45;shell/index.js</title>
<path fill="none" stroke="black" d="M334.283,-142.693C356.522,-142.693 388.618,-142.693 413.289,-142.693"/>
<polygon fill="black" stroke="black" points="413.357,-146.193 423.357,-142.693 413.357,-139.193 413.357,-146.193"/>
</g>
<!-- os -->
<g id="node7" class="node"><title>os</title>
<path fill="#ffffcc" stroke="grey" d="M471.5,-91.6932C471.5,-91.6932 429.5,-91.6932 429.5,-91.6932 426.5,-91.6932 423.5,-88.6932 423.5,-85.6932 423.5,-85.6932 423.5,-79.6932 423.5,-79.6932 423.5,-76.6932 426.5,-73.6932 429.5,-73.6932 429.5,-73.6932 471.5,-73.6932 471.5,-73.6932 474.5,-73.6932 477.5,-76.6932 477.5,-79.6932 477.5,-79.6932 477.5,-85.6932 477.5,-85.6932 477.5,-88.6932 474.5,-91.6932 471.5,-91.6932"/>
<text text-anchor="middle" x="450.5" y="-80.4932" font-family="Helvetica,sans-Serif" font-size="9.00" fill="grey">os</text>
</g>
<!-- node_modules/arepl&#45;backend/index.js&#45;&gt;os -->
<g id="edge3" class="edge"><title>node_modules/arepl&#45;backend/index.js&#45;&gt;os</title>
<path fill="none" stroke="grey" d="M324.061,-133.692C340.709,-124.595 367.656,-110.516 392,-100.693 398.936,-97.8947 406.483,-95.2552 413.758,-92.9044"/>
<polygon fill="grey" stroke="grey" points="414.923,-96.2074 423.429,-89.8896 412.84,-89.5246 414.923,-96.2074"/>
</g>
<!-- path -->
<g id="node8" class="node"><title>path</title>
<path fill="#ffffcc" stroke="grey" d="M603.5,-218.693C603.5,-218.693 561.5,-218.693 561.5,-218.693 558.5,-218.693 555.5,-215.693 555.5,-212.693 555.5,-212.693 555.5,-206.693 555.5,-206.693 555.5,-203.693 558.5,-200.693 561.5,-200.693 561.5,-200.693 603.5,-200.693 603.5,-200.693 606.5,-200.693 609.5,-203.693 609.5,-206.693 609.5,-206.693 609.5,-212.693 609.5,-212.693 609.5,-215.693 606.5,-218.693 603.5,-218.693"/>
<text text-anchor="middle" x="582.5" y="-207.493" font-family="Helvetica,sans-Serif" font-size="9.00" fill="grey">path</text>
</g>
<!-- node_modules/arepl&#45;backend/index.js&#45;&gt;path -->
<g id="edge4" class="edge"><title>node_modules/arepl&#45;backend/index.js&#45;&gt;path</title>
<path fill="none" stroke="grey" d="M324.532,-151.809C341.106,-160.55 367.601,-173.456 392,-180.693 443.916,-196.092 506.386,-203.631 545.024,-207.081"/>
<polygon fill="grey" stroke="grey" points="545.002,-210.592 555.262,-207.949 545.593,-203.617 545.002,-210.592"/>
</g>
<!-- node_modules/python&#45;shell/index.js&#45;&gt;child_process -->
<g id="edge6" class="edge"><title>node_modules/python&#45;shell/index.js&#45;&gt;child_process</title>
<path fill="none" stroke="grey" d="M477.807,-136.218C494.234,-132.174 515.844,-126.855 535.083,-122.119"/>
<polygon fill="grey" stroke="grey" points="536.014,-125.494 544.888,-119.705 534.341,-118.697 536.014,-125.494"/>
</g>
<!-- node_modules/python&#45;shell/index.js&#45;&gt;events -->
<g id="edge7" class="edge"><title>node_modules/python&#45;shell/index.js&#45;&gt;events</title>
<path fill="none" stroke="grey" d="M477.807,-142.491C497.19,-142.342 523.79,-142.137 545.195,-141.972"/>
<polygon fill="grey" stroke="grey" points="545.259,-145.472 555.232,-141.895 545.205,-138.472 545.259,-145.472"/>
</g>
<!-- node_modules/python&#45;shell/index.js&#45;&gt;path -->
<g id="edge8" class="edge"><title>node_modules/python&#45;shell/index.js&#45;&gt;path</title>
<path fill="none" stroke="grey" d="M469.032,-151.729C491.033,-163.068 528.986,-182.629 554.654,-195.857"/>
<polygon fill="grey" stroke="grey" points="553.338,-199.116 563.83,-200.586 556.545,-192.894 553.338,-199.116"/>
</g>
<!-- util -->
<g id="node19" class="node"><title>util</title>
<path fill="#ffffcc" stroke="grey" d="M603.5,-180.693C603.5,-180.693 561.5,-180.693 561.5,-180.693 558.5,-180.693 555.5,-177.693 555.5,-174.693 555.5,-174.693 555.5,-168.693 555.5,-168.693 555.5,-165.693 558.5,-162.693 561.5,-162.693 561.5,-162.693 603.5,-162.693 603.5,-162.693 606.5,-162.693 609.5,-165.693 609.5,-168.693 609.5,-168.693 609.5,-174.693 609.5,-174.693 609.5,-177.693 606.5,-180.693 603.5,-180.693"/>
<text text-anchor="middle" x="582.5" y="-169.493" font-family="Helvetica,sans-Serif" font-size="9.00" fill="grey">util</text>
</g>
<!-- node_modules/python&#45;shell/index.js&#45;&gt;util -->
<g id="edge9" class="edge"><title>node_modules/python&#45;shell/index.js&#45;&gt;util</title>
<path fill="none" stroke="grey" d="M477.807,-148.562C497.19,-152.886 523.79,-158.819 545.195,-163.594"/>
<polygon fill="grey" stroke="grey" points="544.71,-167.072 555.232,-165.833 546.234,-160.24 544.71,-167.072"/>
</g>
<!-- src/PreviewManager.ts -->
<g id="node9" class="node"><title>src/PreviewManager.ts</title>
<g id="a_node9"><a xlink:href="src/PreviewManager.ts" xlink:title="PreviewManager.ts">
<path fill="#ffffcc" stroke="black" d="M211.5,-319.693C211.5,-319.693 128.5,-319.693 128.5,-319.693 125.5,-319.693 122.5,-316.693 122.5,-313.693 122.5,-313.693 122.5,-307.693 122.5,-307.693 122.5,-304.693 125.5,-301.693 128.5,-301.693 128.5,-301.693 211.5,-301.693 211.5,-301.693 214.5,-301.693 217.5,-304.693 217.5,-307.693 217.5,-307.693 217.5,-313.693 217.5,-313.693 217.5,-316.693 214.5,-319.693 211.5,-319.693"/>
<text text-anchor="middle" x="170" y="-308.493" font-family="Helvetica,sans-Serif" font-size="9.00">PreviewManager.ts</text>
</a>
</g>
</g>
<!-- src/PreviewManager.ts&#45;&gt;node_modules/arepl&#45;backend/index.js -->
<g id="edge13" class="edge"><title>src/PreviewManager.ts&#45;&gt;node_modules/arepl&#45;backend/index.js</title>
<path fill="none" stroke="black" d="M212.51,-301.619C215.901,-299.964 219.123,-298.007 222,-295.693 266.356,-260.016 290.846,-194.315 300.741,-161.863"/>
<polygon fill="black" stroke="black" points="304.214,-162.454 303.641,-151.875 297.492,-160.502 304.214,-162.454"/>
</g>
<!-- src/PreviewManager.ts&#45;&gt;os -->
<g id="edge14" class="edge"><title>src/PreviewManager.ts&#45;&gt;os</title>
<path fill="none" stroke="grey" d="M214.741,-301.621C217.411,-299.959 219.873,-298 222,-295.693 275.243,-237.96 202.488,-178.247 258,-122.693 298.919,-81.7431 370.241,-77.5907 413.342,-79.3889"/>
<polygon fill="grey" stroke="grey" points="413.219,-82.8873 423.395,-79.9378 413.601,-75.8977 413.219,-82.8873"/>
</g>
<!-- src/previewContainer.ts -->
<g id="node11" class="node"><title>src/previewContainer.ts</title>
<g id="a_node11"><a xlink:href="src/previewContainer.ts" xlink:title="previewContainer.ts">
<path fill="#ffffcc" stroke="black" d="M350,-349.693C350,-349.693 264,-349.693 264,-349.693 261,-349.693 258,-346.693 258,-343.693 258,-343.693 258,-337.693 258,-337.693 258,-334.693 261,-331.693 264,-331.693 264,-331.693 350,-331.693 350,-331.693 353,-331.693 356,-334.693 356,-337.693 356,-337.693 356,-343.693 356,-343.693 356,-346.693 353,-349.693 350,-349.693"/>
<text text-anchor="middle" x="307" y="-338.493" font-family="Helvetica,sans-Serif" font-size="9.00">previewContainer.ts</text>
</a>
</g>
</g>
<!-- src/PreviewManager.ts&#45;&gt;src/previewContainer.ts -->
<g id="edge10" class="edge"><title>src/PreviewManager.ts&#45;&gt;src/previewContainer.ts</title>
<path fill="none" stroke="black" d="M211.504,-319.694C225.261,-322.751 240.809,-326.206 255.262,-329.418"/>
<polygon fill="black" stroke="black" points="254.536,-332.842 265.058,-331.595 256.055,-326.009 254.536,-332.842"/>
</g>
<!-- src/telemetry.ts -->
<g id="node15" class="node"><title>src/telemetry.ts</title>
<g id="a_node15"><a xlink:href="src/telemetry.ts" xlink:title="telemetry.ts">
<path fill="#ffffcc" stroke="black" d="M333,-289.693C333,-289.693 281,-289.693 281,-289.693 278,-289.693 275,-286.693 275,-283.693 275,-283.693 275,-277.693 275,-277.693 275,-274.693 278,-271.693 281,-271.693 281,-271.693 333,-271.693 333,-271.693 336,-271.693 339,-274.693 339,-277.693 339,-277.693 339,-283.693 339,-283.693 339,-286.693 336,-289.693 333,-289.693"/>
<text text-anchor="middle" x="307" y="-278.493" font-family="Helvetica,sans-Serif" font-size="9.00">telemetry.ts</text>
</a>
</g>
</g>
<!-- src/PreviewManager.ts&#45;&gt;src/telemetry.ts -->
<g id="edge11" class="edge"><title>src/PreviewManager.ts&#45;&gt;src/telemetry.ts</title>
<path fill="none" stroke="black" d="M211.504,-301.692C228.356,-297.948 247.894,-293.606 264.816,-289.845"/>
<polygon fill="black" stroke="black" points="265.965,-293.175 274.967,-287.589 264.446,-286.342 265.965,-293.175"/>
</g>
<!-- src/toAREPLLogic.ts -->
<g id="node17" class="node"><title>src/toAREPLLogic.ts</title>
<g id="a_node17"><a xlink:href="src/toAREPLLogic.ts" xlink:title="toAREPLLogic.ts">
<path fill="#ffffcc" stroke="black" d="M344,-319.693C344,-319.693 270,-319.693 270,-319.693 267,-319.693 264,-316.693 264,-313.693 264,-313.693 264,-307.693 264,-307.693 264,-304.693 267,-301.693 270,-301.693 270,-301.693 344,-301.693 344,-301.693 347,-301.693 350,-304.693 350,-307.693 350,-307.693 350,-313.693 350,-313.693 350,-316.693 347,-319.693 344,-319.693"/>
<text text-anchor="middle" x="307" y="-308.493" font-family="Helvetica,sans-Serif" font-size="9.00">toAREPLLogic.ts</text>
</a>
</g>
</g>
<!-- src/PreviewManager.ts&#45;&gt;src/toAREPLLogic.ts -->
<g id="edge12" class="edge"><title>src/PreviewManager.ts&#45;&gt;src/toAREPLLogic.ts</title>
<path fill="none" stroke="black" d="M217.838,-310.693C229.382,-310.693 241.819,-310.693 253.608,-310.693"/>
<polygon fill="black" stroke="black" points="253.763,-314.193 263.762,-310.693 253.762,-307.193 253.763,-314.193"/>
</g>
<!-- src/extension.ts -->
<g id="node10" class="node"><title>src/extension.ts</title>
<g id="a_node10"><a xlink:href="src/extension.ts" xlink:title="extension.ts">
<path fill="#ffffcc" stroke="black" d="M76,-345.693C76,-345.693 22,-345.693 22,-345.693 19,-345.693 16,-342.693 16,-339.693 16,-339.693 16,-333.693 16,-333.693 16,-330.693 19,-327.693 22,-327.693 22,-327.693 76,-327.693 76,-327.693 79,-327.693 82,-330.693 82,-333.693 82,-333.693 82,-339.693 82,-339.693 82,-342.693 79,-345.693 76,-345.693"/>
<text text-anchor="middle" x="49" y="-334.493" font-family="Helvetica,sans-Serif" font-size="9.00">extension.ts</text>
</a>
</g>
</g>
<!-- src/extension.ts&#45;&gt;src/PreviewManager.ts -->
<g id="edge15" class="edge"><title>src/extension.ts&#45;&gt;src/PreviewManager.ts</title>
<path fill="none" stroke="black" d="M82.2031,-329.657C93.1733,-327.26 105.724,-324.518 117.809,-321.878"/>
<polygon fill="black" stroke="black" points="118.782,-325.248 127.805,-319.694 117.288,-318.409 118.782,-325.248"/>
</g>
<!-- src/pythonPreview.ts -->
<g id="node13" class="node"><title>src/pythonPreview.ts</title>
<g id="a_node13"><a xlink:href="src/pythonPreview.ts" xlink:title="pythonPreview.ts">
<path fill="#ffffcc" stroke="black" d="M487.5,-349.693C487.5,-349.693 413.5,-349.693 413.5,-349.693 410.5,-349.693 407.5,-346.693 407.5,-343.693 407.5,-343.693 407.5,-337.693 407.5,-337.693 407.5,-334.693 410.5,-331.693 413.5,-331.693 413.5,-331.693 487.5,-331.693 487.5,-331.693 490.5,-331.693 493.5,-334.693 493.5,-337.693 493.5,-337.693 493.5,-343.693 493.5,-343.693 493.5,-346.693 490.5,-349.693 487.5,-349.693"/>
<text text-anchor="middle" x="450.5" y="-338.493" font-family="Helvetica,sans-Serif" font-size="9.00">pythonPreview.ts</text>
</a>
</g>
</g>
<!-- src/extension.ts&#45;&gt;src/pythonPreview.ts -->
<g id="edge16" class="edge"><title>src/extension.ts&#45;&gt;src/pythonPreview.ts</title>
<path fill="none" stroke="black" d="M82.1868,-341.686C137.979,-349.67 256.249,-363.644 356,-355.693 369.451,-354.621 383.888,-352.695 397.297,-350.572"/>
<polygon fill="black" stroke="black" points="398.018,-354 407.316,-348.921 396.88,-347.093 398.018,-354"/>
</g>
<!-- src/registerAreplDump.ts -->
<g id="node14" class="node"><title>src/registerAreplDump.ts</title>
<g id="a_node14"><a xlink:href="src/registerAreplDump.ts" xlink:title="registerAreplDump.ts">
<path fill="#ffffcc" stroke="black" d="M216,-289.693C216,-289.693 124,-289.693 124,-289.693 121,-289.693 118,-286.693 118,-283.693 118,-283.693 118,-277.693 118,-277.693 118,-274.693 121,-271.693 124,-271.693 124,-271.693 216,-271.693 216,-271.693 219,-271.693 222,-274.693 222,-277.693 222,-277.693 222,-283.693 222,-283.693 222,-286.693 219,-289.693 216,-289.693"/>
<text text-anchor="middle" x="170" y="-278.493" font-family="Helvetica,sans-Serif" font-size="9.00">registerAreplDump.ts</text>
</a>
</g>
</g>
<!-- src/extension.ts&#45;&gt;src/registerAreplDump.ts -->
<g id="edge17" class="edge"><title>src/extension.ts&#45;&gt;src/registerAreplDump.ts</title>
<path fill="none" stroke="black" d="M62.9978,-327.466C76.2946,-318.368 97.8095,-304.572 118,-295.693 120.025,-294.803 122.118,-293.947 124.248,-293.129"/>
<polygon fill="black" stroke="black" points="125.471,-296.409 133.733,-289.776 123.138,-289.809 125.471,-296.409"/>
</g>
<!-- src/utilities.ts -->
<g id="node18" class="node"><title>src/utilities.ts</title>
<g id="a_node18"><a xlink:href="src/utilities.ts" xlink:title="utilities.ts">
<path fill="#ffffcc" stroke="black" d="M604.5,-374.693C604.5,-374.693 560.5,-374.693 560.5,-374.693 557.5,-374.693 554.5,-371.693 554.5,-368.693 554.5,-368.693 554.5,-362.693 554.5,-362.693 554.5,-359.693 557.5,-356.693 560.5,-356.693 560.5,-356.693 604.5,-356.693 604.5,-356.693 607.5,-356.693 610.5,-359.693 610.5,-362.693 610.5,-362.693 610.5,-368.693 610.5,-368.693 610.5,-371.693 607.5,-374.693 604.5,-374.693"/>
<text text-anchor="middle" x="582.5" y="-363.493" font-family="Helvetica,sans-Serif" font-size="9.00">utilities.ts</text>
</a>
</g>
</g>
<!-- src/extension.ts&#45;&gt;src/utilities.ts -->
<g id="edge18" class="edge"><title>src/extension.ts&#45;&gt;src/utilities.ts</title>
<path fill="none" stroke="black" d="M78.4969,-345.704C90.5587,-349.133 104.84,-352.693 118,-354.693 274.756,-378.513 464.706,-372.188 543.953,-368.007"/>
<polygon fill="black" stroke="black" points="544.592,-371.477 554.385,-367.434 544.208,-364.487 544.592,-371.477"/>
</g>
<!-- src/previewContainer.ts&#45;&gt;src/pythonPreview.ts -->
<g id="edge19" class="edge"><title>src/previewContainer.ts&#45;&gt;src/pythonPreview.ts</title>
<path fill="none" stroke="black" d="M356.301,-340.693C369.314,-340.693 383.459,-340.693 396.704,-340.693"/>
<polygon fill="black" stroke="black" points="397.095,-344.193 407.095,-340.693 397.095,-337.193 397.095,-344.193"/>
</g>
<!-- src/previewContainer.ts&#45;&gt;src/utilities.ts -->
<g id="edge20" class="edge"><title>src/previewContainer.ts&#45;&gt;src/utilities.ts</title>
<path fill="none" stroke="black" d="M352.75,-349.745C365.394,-352.013 379.197,-354.218 392,-355.693 444.652,-361.76 505.964,-364.151 544.26,-365.09"/>
<polygon fill="black" stroke="black" points="544.348,-368.593 554.424,-365.318 544.505,-361.595 544.348,-368.593"/>
</g>
<!-- src/pyGuiLibraryIsPresent.ts -->
<g id="node12" class="node"><title>src/pyGuiLibraryIsPresent.ts</title>
<g id="a_node12"><a xlink:href="src/pyGuiLibraryIsPresent.ts" xlink:title="pyGuiLibraryIsPresent.ts">
<path fill="#ffffcc" stroke="black" d="M503,-319.693C503,-319.693 398,-319.693 398,-319.693 395,-319.693 392,-316.693 392,-313.693 392,-313.693 392,-307.693 392,-307.693 392,-304.693 395,-301.693 398,-301.693 398,-301.693 503,-301.693 503,-301.693 506,-301.693 509,-304.693 509,-307.693 509,-307.693 509,-313.693 509,-313.693 509,-316.693 506,-319.693 503,-319.693"/>
<text text-anchor="middle" x="450.5" y="-308.493" font-family="Helvetica,sans-Serif" font-size="9.00">pyGuiLibraryIsPresent.ts</text>
</a>
</g>
</g>
<!-- src/pythonPreview.ts&#45;&gt;path -->
<g id="edge23" class="edge"><title>src/pythonPreview.ts&#45;&gt;path</title>
<path fill="none" stroke="grey" d="M493.593,-334.019C499.118,-331.946 504.436,-329.236 509,-325.693 535.087,-305.443 527.361,-288.611 545,-260.693 552.302,-249.135 561.222,-236.646 568.416,-226.92"/>
<polygon fill="grey" stroke="grey" points="571.251,-228.973 574.442,-218.87 565.647,-224.778 571.251,-228.973"/>
</g>
<!-- src/throttle.ts -->
<g id="node16" class="node"><title>src/throttle.ts</title>
<g id="a_node16"><a xlink:href="src/throttle.ts" xlink:title="throttle.ts">
<path fill="#ffffcc" stroke="black" d="M603.5,-344.693C603.5,-344.693 561.5,-344.693 561.5,-344.693 558.5,-344.693 555.5,-341.693 555.5,-338.693 555.5,-338.693 555.5,-332.693 555.5,-332.693 555.5,-329.693 558.5,-326.693 561.5,-326.693 561.5,-326.693 603.5,-326.693 603.5,-326.693 606.5,-326.693 609.5,-329.693 609.5,-332.693 609.5,-332.693 609.5,-338.693 609.5,-338.693 609.5,-341.693 606.5,-344.693 603.5,-344.693"/>
<text text-anchor="middle" x="582.5" y="-333.493" font-family="Helvetica,sans-Serif" font-size="9.00">throttle.ts</text>
</a>
</g>
</g>
<!-- src/pythonPreview.ts&#45;&gt;src/throttle.ts -->
<g id="edge21" class="edge"><title>src/pythonPreview.ts&#45;&gt;src/throttle.ts</title>
<path fill="none" stroke="black" d="M493.707,-339.07C510.371,-338.429 529.323,-337.7 545.344,-337.084"/>
<polygon fill="black" stroke="black" points="545.536,-340.579 555.394,-336.697 545.267,-333.584 545.536,-340.579"/>
</g>
<!-- src/pythonPreview.ts&#45;&gt;src/utilities.ts -->
<g id="edge22" class="edge"><title>src/pythonPreview.ts&#45;&gt;src/utilities.ts</title>
<path fill="none" stroke="black" d="M493.707,-348.81C510.006,-351.944 528.495,-355.5 544.287,-358.537"/>
<polygon fill="black" stroke="black" points="543.744,-361.997 554.225,-360.448 545.066,-355.123 543.744,-361.997"/>
</g>
<!-- src/registerAreplDump.ts&#45;&gt;child_process -->
<g id="edge24" class="edge"><title>src/registerAreplDump.ts&#45;&gt;child_process</title>
<path fill="none" stroke="grey" d="M171.089,-271.385C171.994,-235.01 180.652,-101.671 258,-44.6932 347.852,21.4958 405.97,5.19093 509,-37.6932 535.822,-48.8571 557.827,-75.3026 570.309,-93.105"/>
<polygon fill="grey" stroke="grey" points="567.464,-95.1472 575.943,-101.5 573.277,-91.2463 567.464,-95.1472"/>
</g>
<!-- src/registerAreplDump.ts&#45;&gt;fs -->
<g id="edge25" class="edge"><title>src/registerAreplDump.ts&#45;&gt;fs</title>
<path fill="none" stroke="grey" d="M171.873,-271.602C175.493,-239.355 192.372,-129.707 258,-79.6932 302.928,-45.4541 371.513,-44.5571 413.256,-47.9658"/>
<polygon fill="grey" stroke="grey" points="412.976,-51.4547 423.26,-48.9074 413.632,-44.4855 412.976,-51.4547"/>
</g>
<!-- src/registerAreplDump.ts&#45;&gt;path -->
<g id="edge26" class="edge"><title>src/registerAreplDump.ts&#45;&gt;path</title>
<path fill="none" stroke="grey" d="M206.377,-271.672C249.833,-260.863 325.925,-242.824 392,-231.693 444.99,-222.767 506.929,-216.319 545.189,-212.792"/>
<polygon fill="grey" stroke="grey" points="545.681,-216.262 555.325,-211.876 545.051,-209.291 545.681,-216.262"/>
</g>
<!-- src/telemetry.ts&#45;&gt;buffer -->
<g id="edge27" class="edge"><title>src/telemetry.ts&#45;&gt;buffer</title>
<path fill="none" stroke="grey" d="M339.053,-273.232C361.021,-267.953 390.54,-260.86 413.533,-255.335"/>
<polygon fill="grey" stroke="grey" points="414.361,-258.736 423.267,-252.997 412.726,-251.93 414.361,-258.736"/>
</g>
<!-- src/toAREPLLogic.ts&#45;&gt;src/pyGuiLibraryIsPresent.ts -->
<g id="edge28" class="edge"><title>src/toAREPLLogic.ts&#45;&gt;src/pyGuiLibraryIsPresent.ts</title>
<path fill="none" stroke="black" d="M350.072,-310.693C360.011,-310.693 370.859,-310.693 381.619,-310.693"/>
<polygon fill="black" stroke="black" points="381.876,-314.193 391.876,-310.693 381.876,-307.193 381.876,-314.193"/>
</g>
</g>
</svg>
