<?xml version="1.0" encoding="UTF-8" standalone="no"?>
<!DOCTYPE svg PUBLIC "-//W3C//DTD SVG 1.1//EN"
 "http://www.w3.org/Graphics/SVG/1.1/DTD/svg11.dtd">
<!-- Generated by graphviz version 2.38.0 (20140413.2041)
 -->
<!-- Title: dependency&#45;cruiser output Pages: 1 -->
<svg width="625pt" height="258pt"
 viewBox="0.00 0.00 625.00 258.00" xmlns="http://www.w3.org/2000/svg" xmlns:xlink="http://www.w3.org/1999/xlink">
<g id="graph0" class="graph" transform="scale(1 1) rotate(0) translate(4 254)">
<title>dependency&#45;cruiser output</title>
<polygon fill="white" stroke="none" points="-4,4 -4,-254 621,-254 621,4 -4,4"/>
<g id="clust1" class="cluster"><title>cluster_/node_modules</title>
<path fill="none" stroke="black" stroke-width="2" d="M272,-8C272,-8 481.5,-8 481.5,-8 487.5,-8 493.5,-14 493.5,-20 493.5,-20 493.5,-82 493.5,-82 493.5,-88 487.5,-94 481.5,-94 481.5,-94 272,-94 272,-94 266,-94 260,-88 260,-82 260,-82 260,-20 260,-20 260,-14 266,-8 272,-8"/>
<text text-anchor="middle" x="376.75" y="-82.8" font-family="Helvetica,sans-Serif" font-weight="bold" font-size="9.00">node_modules</text>
</g>
<g id="clust2" class="cluster"><title>cluster_/node_modules/arepl&#45;backend</title>
<path fill="none" stroke="black" stroke-width="2" d="M280,-16C280,-16 334,-16 334,-16 340,-16 346,-22 346,-28 346,-28 346,-56 346,-56 346,-62 340,-68 334,-68 334,-68 280,-68 280,-68 274,-68 268,-62 268,-56 268,-56 268,-28 268,-28 268,-22 274,-16 280,-16"/>
<text text-anchor="middle" x="307" y="-56.8" font-family="Helvetica,sans-Serif" font-weight="bold" font-size="9.00">arepl&#45;backend</text>
</g>
<g id="clust3" class="cluster"><title>cluster_/node_modules/python&#45;shell</title>
<path fill="none" stroke="black" stroke-width="2" d="M427.5,-16C427.5,-16 473.5,-16 473.5,-16 479.5,-16 485.5,-22 485.5,-28 485.5,-28 485.5,-56 485.5,-56 485.5,-62 479.5,-68 473.5,-68 473.5,-68 427.5,-68 427.5,-68 421.5,-68 415.5,-62 415.5,-56 415.5,-56 415.5,-28 415.5,-28 415.5,-22 421.5,-16 427.5,-16"/>
<text text-anchor="middle" x="450.5" y="-56.8" font-family="Helvetica,sans-Serif" font-weight="bold" font-size="9.00">python&#45;shell</text>
</g>
<g id="clust4" class="cluster"><title>cluster_/src</title>
<path fill="none" stroke="black" stroke-width="2" d="M20,-102C20,-102 597,-102 597,-102 603,-102 609,-108 609,-114 609,-114 609,-230 609,-230 609,-236 603,-242 597,-242 597,-242 20,-242 20,-242 14,-242 8,-236 8,-230 8,-230 8,-114 8,-114 8,-108 14,-102 20,-102"/>
<text text-anchor="middle" x="308.5" y="-230.8" font-family="Helvetica,sans-Serif" font-weight="bold" font-size="9.00">src</text>
</g>
<!-- node_modules/arepl&#45;backend/index.js -->
<g id="node1" class="node"><title>node_modules/arepl&#45;backend/index.js</title>
<g id="a_node1"><a xlink:href="node_modules/arepl-backend/index.js" xlink:title="index.js">
<path fill="#ffffcc" stroke="black" d="M328,-42C328,-42 286,-42 286,-42 283,-42 280,-39 280,-36 280,-36 280,-30 280,-30 280,-27 283,-24 286,-24 286,-24 328,-24 328,-24 331,-24 334,-27 334,-30 334,-30 334,-36 334,-36 334,-39 331,-42 328,-42"/>
<text text-anchor="middle" x="307" y="-30.8" font-family="Helvetica,sans-Serif" font-size="9.00">index.js</text>
</a>
</g>
</g>
<!-- node_modules/python&#45;shell/index.js -->
<g id="node2" class="node"><title>node_modules/python&#45;shell/index.js</title>
<g id="a_node2"><a xlink:href="node_modules/python-shell/index.js" xlink:title="index.js">
<path fill="#ffffcc" stroke="black" d="M471.5,-42C471.5,-42 429.5,-42 429.5,-42 426.5,-42 423.5,-39 423.5,-36 423.5,-36 423.5,-30 423.5,-30 423.5,-27 426.5,-24 429.5,-24 429.5,-24 471.5,-24 471.5,-24 474.5,-24 477.5,-27 477.5,-30 477.5,-30 477.5,-36 477.5,-36 477.5,-39 474.5,-42 471.5,-42"/>
<text text-anchor="middle" x="450.5" y="-30.8" font-family="Helvetica,sans-Serif" font-size="9.00">index.js</text>
</a>
</g>
</g>
<!-- node_modules/arepl&#45;backend/index.js&#45;&gt;node_modules/python&#45;shell/index.js -->
<g id="edge1" class="edge"><title>node_modules/arepl&#45;backend/index.js&#45;&gt;node_modules/python&#45;shell/index.js</title>
<path fill="none" stroke="black" d="M334.283,-33C356.522,-33 388.618,-33 413.289,-33"/>
<polygon fill="black" stroke="black" points="413.357,-36.5001 423.357,-33 413.357,-29.5001 413.357,-36.5001"/>
</g>
<!-- src/arepl.ts -->
<g id="node3" class="node"><title>src/arepl.ts</title>
<g id="a_node3"><a xlink:href="src/arepl.ts" xlink:title="arepl.ts">
<path fill="#ffffcc" stroke="black" d="M211.5,-158C211.5,-158 128.5,-158 128.5,-158 125.5,-158 122.5,-155 122.5,-152 122.5,-152 122.5,-146 122.5,-146 122.5,-143 125.5,-140 128.5,-140 128.5,-140 211.5,-140 211.5,-140 214.5,-140 217.5,-143 217.5,-146 217.5,-146 217.5,-152 217.5,-152 217.5,-155 214.5,-158 211.5,-158"/>
<text text-anchor="middle" x="170" y="-146.8" font-family="Helvetica,sans-Serif" font-size="9.00">arepl.ts</text>
</a>
</g>
</g>
<!-- src/arepl.ts&#45;&gt;node_modules/arepl&#45;backend/index.js -->
<g id="edge5" class="edge"><title>src/arepl.ts&#45;&gt;node_modules/arepl&#45;backend/index.js</title>
<path fill="none" stroke="black" d="M181.593,-139.898C204.562,-120.161 259.178,-73.2318 287.797,-48.6415"/>
<polygon fill="black" stroke="black" points="290.152,-51.2319 295.456,-42.06 285.59,-45.9226 290.152,-51.2319"/>
</g>
<!-- src/resultsHandler.ts -->
<g id="node5" class="node"><title>src/resultsHandler.ts</title>
<g id="a_node5"><a xlink:href="src/resultsHandler.ts" xlink:title="resultsHandler.ts">
<path fill="#ffffcc" stroke="black" d="M350,-128C350,-128 264,-128 264,-128 261,-128 258,-125 258,-122 258,-122 258,-116 258,-116 258,-113 261,-110 264,-110 264,-110 350,-110 350,-110 353,-110 356,-113 356,-116 356,-116 356,-122 356,-122 356,-125 353,-128 350,-128"/>
<text text-anchor="middle" x="307" y="-116.8" font-family="Helvetica,sans-Serif" font-size="9.00">resultsHandler.ts</text>
</a>
</g>
</g>
<!-- src/arepl.ts&#45;&gt;src/resultsHandler.ts -->
<g id="edge2" class="edge"><title>src/arepl.ts&#45;&gt;src/resultsHandler.ts</title>
<path fill="none" stroke="black" d="M211.504,-139.999C225.261,-136.942 240.809,-133.487 255.262,-130.275"/>
<polygon fill="black" stroke="black" points="256.055,-133.684 265.058,-128.098 254.536,-126.851 256.055,-133.684"/>
</g>
<!-- src/telemetry.ts -->
<g id="node9" class="node"><title>src/telemetry.ts</title>
<g id="a_node9"><a xlink:href="src/telemetry.ts" xlink:title="telemetry.ts">
<path fill="#ffffcc" stroke="black" d="M333,-158C333,-158 281,-158 281,-158 278,-158 275,-155 275,-152 275,-152 275,-146 275,-146 275,-143 278,-140 281,-140 281,-140 333,-140 333,-140 336,-140 339,-143 339,-146 339,-146 339,-152 339,-152 339,-155 336,-158 333,-158"/>
<text text-anchor="middle" x="307" y="-146.8" font-family="Helvetica,sans-Serif" font-size="9.00">telemetry.ts</text>
</a>
</g>
</g>
<!-- src/arepl.ts&#45;&gt;src/telemetry.ts -->
<g id="edge3" class="edge"><title>src/arepl.ts&#45;&gt;src/telemetry.ts</title>
<path fill="none" stroke="black" d="M217.838,-149C233.035,-149 249.779,-149 264.556,-149"/>
<polygon fill="black" stroke="black" points="264.917,-152.5 274.917,-149 264.917,-145.5 264.917,-152.5"/>
</g>
<!-- src/toAREPLLogic.ts -->
<g id="node11" class="node"><title>src/toAREPLLogic.ts</title>
<g id="a_node11"><a xlink:href="src/toAREPLLogic.ts" xlink:title="toAREPLLogic.ts">
<path fill="#ffffcc" stroke="black" d="M344,-188C344,-188 270,-188 270,-188 267,-188 264,-185 264,-182 264,-182 264,-176 264,-176 264,-173 267,-170 270,-170 270,-170 344,-170 344,-170 347,-170 350,-173 350,-176 350,-176 350,-182 350,-182 350,-185 347,-188 344,-188"/>
<text text-anchor="middle" x="307" y="-176.8" font-family="Helvetica,sans-Serif" font-size="9.00">toAREPLLogic.ts</text>
</a>
</g>
</g>
<!-- src/arepl.ts&#45;&gt;src/toAREPLLogic.ts -->
<g id="edge4" class="edge"><title>src/arepl.ts&#45;&gt;src/toAREPLLogic.ts</title>
<path fill="none" stroke="black" d="M211.504,-158.001C225.261,-161.058 240.809,-164.513 255.262,-167.725"/>
<polygon fill="black" stroke="black" points="254.536,-171.149 265.058,-169.902 256.055,-164.316 254.536,-171.149"/>
</g>
<!-- src/extension.ts -->
<g id="node4" class="node"><title>src/extension.ts</title>
<g id="a_node4"><a xlink:href="src/extension.ts" xlink:title="extension.ts">
<path fill="#ffffcc" stroke="black" d="M76,-191C76,-191 22,-191 22,-191 19,-191 16,-188 16,-185 16,-185 16,-179 16,-179 16,-176 19,-173 22,-173 22,-173 76,-173 76,-173 79,-173 82,-176 82,-179 82,-179 82,-185 82,-185 82,-188 79,-191 76,-191"/>
<text text-anchor="middle" x="49" y="-179.8" font-family="Helvetica,sans-Serif" font-size="9.00">extension.ts</text>
</a>
</g>
</g>
<!-- src/extension.ts&#45;&gt;src/arepl.ts -->
<g id="edge6" class="edge"><title>src/extension.ts&#45;&gt;src/arepl.ts</title>
<path fill="none" stroke="black" d="M82.2031,-173.07C95.8492,-169.286 111.941,-164.823 126.538,-160.775"/>
<polygon fill="black" stroke="black" points="127.656,-164.097 136.357,-158.052 125.786,-157.352 127.656,-164.097"/>
</g>
<!-- src/resultsPanel.ts -->
<g id="node7" class="node"><title>src/resultsPanel.ts</title>
<g id="a_node7"><a xlink:href="src/resultsPanel.ts" xlink:title="resultsPanel.ts">
<path fill="#ffffcc" stroke="black" d="M487.5,-202C487.5,-202 413.5,-202 413.5,-202 410.5,-202 407.5,-199 407.5,-196 407.5,-196 407.5,-190 407.5,-190 407.5,-187 410.5,-184 413.5,-184 413.5,-184 487.5,-184 487.5,-184 490.5,-184 493.5,-187 493.5,-190 493.5,-190 493.5,-196 493.5,-196 493.5,-199 490.5,-202 487.5,-202"/>
<text text-anchor="middle" x="450.5" y="-190.8" font-family="Helvetica,sans-Serif" font-size="9.00">resultsPanel.ts</text>
</a>
</g>
</g>
<!-- src/extension.ts&#45;&gt;src/resultsPanel.ts -->
<g id="edge7" class="edge"><title>src/extension.ts&#45;&gt;src/resultsPanel.ts</title>
<path fill="none" stroke="black" d="M82.1524,-179.72C93.4765,-179.02 106.297,-178.344 118,-178 164.202,-176.642 176.785,-168.405 222,-178 239.128,-181.635 240.872,-190.365 258,-194 300.607,-203.042 312.445,-194.233 356,-194 369.324,-193.929 383.716,-193.8 397.121,-193.659"/>
<polygon fill="black" stroke="black" points="397.184,-197.158 407.145,-193.549 397.107,-190.159 397.184,-197.158"/>
</g>
<!-- src/registerAreplDump.ts -->
<g id="node8" class="node"><title>src/registerAreplDump.ts</title>
<g id="a_node8"><a xlink:href="src/registerAreplDump.ts" xlink:title="registerAreplDump.ts">
<path fill="#ffffcc" stroke="black" d="M216,-202C216,-202 124,-202 124,-202 121,-202 118,-199 118,-196 118,-196 118,-190 118,-190 118,-187 121,-184 124,-184 124,-184 216,-184 216,-184 219,-184 222,-187 222,-190 222,-190 222,-196 222,-196 222,-199 219,-202 216,-202"/>
<text text-anchor="middle" x="170" y="-190.8" font-family="Helvetica,sans-Serif" font-size="9.00">registerAreplDump.ts</text>
</a>
</g>
</g>
<!-- src/extension.ts&#45;&gt;src/registerAreplDump.ts -->
<g id="edge8" class="edge"><title>src/extension.ts&#45;&gt;src/registerAreplDump.ts</title>
<path fill="none" stroke="black" d="M82.2031,-184.977C90.2049,-185.716 99.0476,-186.534 107.937,-187.356"/>
<polygon fill="black" stroke="black" points="107.671,-190.846 117.951,-188.281 108.315,-183.875 107.671,-190.846"/>
</g>
<!-- src/utilities.ts -->
<g id="node12" class="node"><title>src/utilities.ts</title>
<g id="a_node12"><a xlink:href="src/utilities.ts" xlink:title="utilities.ts">
<path fill="#ffffcc" stroke="black" d="M595,-179C595,-179 551,-179 551,-179 548,-179 545,-176 545,-173 545,-173 545,-167 545,-167 545,-164 548,-161 551,-161 551,-161 595,-161 595,-161 598,-161 601,-164 601,-167 601,-167 601,-173 601,-173 601,-176 598,-179 595,-179"/>
<text text-anchor="middle" x="573" y="-167.8" font-family="Helvetica,sans-Serif" font-size="9.00">utilities.ts</text>
</a>
</g>
</g>
<!-- src/extension.ts&#45;&gt;src/utilities.ts -->
<g id="edge9" class="edge"><title>src/extension.ts&#45;&gt;src/utilities.ts</title>
<path fill="none" stroke="black" d="M68.2287,-191.067C81.6266,-197.205 100.475,-204.764 118,-208 288.889,-239.556 342.196,-256.736 509,-208 527.225,-202.675 528.694,-194.726 545,-185 545.518,-184.691 546.043,-184.38 546.573,-184.068"/>
<polygon fill="black" stroke="black" points="548.408,-187.051 555.345,-179.043 544.928,-180.977 548.408,-187.051"/>
</g>
<!-- src/resultsHandler.ts&#45;&gt;src/resultsPanel.ts -->
<g id="edge10" class="edge"><title>src/resultsHandler.ts&#45;&gt;src/resultsPanel.ts</title>
<path fill="none" stroke="black" d="M345.189,-128.184C348.99,-129.828 352.672,-131.752 356,-134 376.939,-148.141 370.729,-164.362 392,-178 393.905,-179.222 395.906,-180.344 397.973,-181.375"/>
<polygon fill="black" stroke="black" points="396.782,-184.672 407.356,-185.337 399.505,-178.223 396.782,-184.672"/>
</g>
<!-- src/resultsHandler.ts&#45;&gt;src/utilities.ts -->
<g id="edge11" class="edge"><title>src/resultsHandler.ts&#45;&gt;src/utilities.ts</title>
<path fill="none" stroke="black" d="M356.011,-123.3C397.046,-127.597 457.454,-135.406 509,-148 519.298,-150.516 530.282,-154.044 540.147,-157.539"/>
<polygon fill="black" stroke="black" points="538.979,-160.838 549.572,-160.984 541.382,-154.264 538.979,-160.838"/>
</g>
<!-- src/pyGuiLibraryIsPresent.ts -->
<g id="node6" class="node"><title>src/pyGuiLibraryIsPresent.ts</title>
<g id="a_node6"><a xlink:href="src/pyGuiLibraryIsPresent.ts" xlink:title="pyGuiLibraryIsPresent.ts">
<path fill="#ffffcc" stroke="black" d="M503,-172C503,-172 398,-172 398,-172 395,-172 392,-169 392,-166 392,-166 392,-160 392,-160 392,-157 395,-154 398,-154 398,-154 503,-154 503,-154 506,-154 509,-157 509,-160 509,-160 509,-166 509,-166 509,-169 506,-172 503,-172"/>
<text text-anchor="middle" x="450.5" y="-160.8" font-family="Helvetica,sans-Serif" font-size="9.00">pyGuiLibraryIsPresent.ts</text>
</a>
</g>
</g>
<!-- src/throttle.ts -->
<g id="node10" class="node"><title>src/throttle.ts</title>
<g id="a_node10"><a xlink:href="src/throttle.ts" xlink:title="throttle.ts">
<path fill="#ffffcc" stroke="black" d="M594,-209C594,-209 552,-209 552,-209 549,-209 546,-206 546,-203 546,-203 546,-197 546,-197 546,-194 549,-191 552,-191 552,-191 594,-191 594,-191 597,-191 600,-194 600,-197 600,-197 600,-203 600,-203 600,-206 597,-209 594,-209"/>
<text text-anchor="middle" x="573" y="-197.8" font-family="Helvetica,sans-Serif" font-size="9.00">throttle.ts</text>
</a>
</g>
</g>
<!-- src/resultsPanel.ts&#45;&gt;src/throttle.ts -->
<g id="edge12" class="edge"><title>src/resultsPanel.ts&#45;&gt;src/throttle.ts</title>
<path fill="none" stroke="black" d="M493.645,-195.448C507.355,-196.245 522.443,-197.121 535.688,-197.891"/>
<polygon fill="black" stroke="black" points="535.667,-201.395 545.853,-198.481 536.073,-194.407 535.667,-201.395"/>
</g>
<!-- src/resultsPanel.ts&#45;&gt;src/utilities.ts -->
<g id="edge13" class="edge"><title>src/resultsPanel.ts&#45;&gt;src/utilities.ts</title>
<path fill="none" stroke="black" d="M493.645,-184.956C507.033,-182.4 521.736,-179.594 534.753,-177.109"/>
<polygon fill="black" stroke="black" points="535.608,-180.509 544.774,-175.197 534.295,-173.634 535.608,-180.509"/>
</g>
<!-- src/toAREPLLogic.ts&#45;&gt;src/pyGuiLibraryIsPresent.ts -->
<g id="edge14" class="edge"><title>src/toAREPLLogic.ts&#45;&gt;src/pyGuiLibraryIsPresent.ts</title>
<path fill="none" stroke="black" d="M350.072,-174.243C360.011,-173.119 370.859,-171.892 381.619,-170.676"/>
<polygon fill="black" stroke="black" points="382.332,-174.117 391.876,-169.516 381.546,-167.162 382.332,-174.117"/>
</g>
</g>
</svg>
