<?xml version="1.0" encoding="UTF-8" standalone="no"?>
<svg
   xmlns:dc="http://purl.org/dc/elements/1.1/"
   xmlns:cc="http://creativecommons.org/ns#"
   xmlns:rdf="http://www.w3.org/1999/02/22-rdf-syntax-ns#"
   xmlns:svg="http://www.w3.org/2000/svg"
   xmlns="http://www.w3.org/2000/svg"
   width="1080"
   height="1080"
   viewBox="0 0 285.74999 285.75001"
   version="1.1"
   id="svg8">
  <defs
     id="defs2" />
  <metadata
     id="metadata5">
    <rdf:RDF>
      <cc:Work
         rdf:about="">
        <dc:format>image/svg+xml</dc:format>
        <dc:type
           rdf:resource="http://purl.org/dc/dcmitype/StillImage" />
        <dc:title></dc:title>
      </cc:Work>
    </rdf:RDF>
  </metadata>
  <g
     id="layer1">
    <path
       d="m 93.017419,28.052318 c -1.302713,0.05407 -2.788259,0.824819 -4.335936,2.373049 C 53.530732,65.588562 17.904861,104.58971 9.7517916,150.98591 c -1.43822,8.18441 0.0711,21.52508 3.4394504,29.11915 14.986899,33.78853 54.585157,77.59569 129.683598,77.59569 75.09844,0 114.69865,-43.80716 129.68555,-77.59569 3.36834,-7.59407 4.87572,-20.93474 3.4375,-29.11915 -8.15307,-46.3962 -43.77699,-85.397348 -78.92774,-120.560543 -4.12714,-4.128606 -7.81239,-2.72385 -8.76953,3.033202 -5.62143,33.811973 -23.10094,37.423826 -45.42578,37.423826 -22.32484,0 -39.8024,-3.611853 -45.423827,-37.423826 C 96.8528,29.860412 95.188608,27.962198 93.017419,28.052318 Z M 48.011561,127.95271 c 26.124636,0.76918 53.442059,12.8727 70.466799,31.05274 2.89667,3.09323 1.61831,6.66419 -2.5254,7.56054 -45.263371,9.79117 -67.829917,4.39794 -74.480462,-30.91407 -0.784514,-4.16547 2.30265,-7.82394 6.539063,-7.69921 z m 189.726559,0 c 4.23641,-0.12473 7.32358,3.53374 6.53906,7.69921 -6.65054,35.31201 -29.21709,40.70524 -74.48046,30.91407 -4.14371,-0.89635 -5.42207,-4.46731 -2.5254,-7.56054 17.02474,-18.18004 44.34216,-30.28356 70.4668,-31.05274 z"
       style="display:inline;opacity:1;fill:#f48771;fill-opacity:1;stroke:none;stroke-width:0.347374px;stroke-linecap:butt;stroke-linejoin:miter;stroke-opacity:1"
       id="path24" />
  </g>
</svg>
