<?xml version="1.0" encoding="UTF-8" standalone="no"?>
<svg
   xmlns:dc="http://purl.org/dc/elements/1.1/"
   xmlns:cc="http://creativecommons.org/ns#"
   xmlns:rdf="http://www.w3.org/1999/02/22-rdf-syntax-ns#"
   xmlns:svg="http://www.w3.org/2000/svg"
   xmlns="http://www.w3.org/2000/svg"
   width="1080"
   height="1080"
   viewBox="0 0 285.74999 285.75001"
   version="1.1"
   id="svg8">
  <defs
     id="defs2" />
  <metadata
     id="metadata5">
    <rdf:RDF>
      <cc:Work
         rdf:about="">
        <dc:format>image/svg+xml</dc:format>
        <dc:type
           rdf:resource="http://purl.org/dc/dcmitype/StillImage" />
        <dc:title></dc:title>
      </cc:Work>
    </rdf:RDF>
  </metadata>
  <g
     id="layer1">
    <path
       transform="matrix(0.34737577,0,0,0.34737577,-35.468064,-48.417698)"
       id="path3967"
       d="m 369.59375,201.09961 c -10.0073,0.29464 -19.13929,5.87135 -25.66992,12.4043 -101.61866,101.65465 -207.71177,216.14533 -232.50391,357.22851 -5.14364,29.27064 -0.94528,67.35342 11.24805,94.84375 45.71043,103.05595 167.13958,234.69531 390.73242,234.69531 223.59284,0 345.02199,-131.63936 390.73242,-234.69531 12.19333,-27.49033 16.39169,-65.57311 11.24805,-94.84375 C 890.58872,429.64924 784.49562,315.15856 682.87695,213.50391 c -8.7075,-8.71059 -22.03899,-15.72268 -35.90429,-10.7793 -13.86531,4.94338 -19.60303,17.91294 -21.58789,29.85156 -7.58563,45.62628 -21.63799,66.23444 -38.97266,77.54297 -17.33467,11.30853 -41.90515,14.27344 -73.01172,14.27344 -31.10657,0 -55.6751,-2.96491 -73.00977,-14.27344 -17.33466,-11.30853 -31.38702,-31.91669 -38.97265,-77.54297 -1.98486,-11.93862 -7.72259,-24.90818 -21.58789,-29.85156 -3.46633,-1.23585 -6.90056,-1.72322 -10.23633,-1.625 z m -4.28711,44.98047 c 9.15895,47.46786 27.70669,78.60306 54.27539,95.93554 27.9362,18.2246 60.65782,20.45899 93.81836,20.45899 33.16054,0 65.88412,-2.23439 93.82031,-20.45899 26.56835,-17.33225 45.11631,-48.4668 54.27539,-95.93359 98.80972,99.27141 194.6375,207.5307 216.37696,331.24219 3.13685,17.85074 -1.353,56.57846 -8.55274,72.81055 -40.57593,91.48002 -147.13692,212.05468 -355.91992,212.05468 -208.783,0 -315.34399,-120.57466 -355.91992,-212.05468 -7.19974,-16.23209 -11.68764,-54.95981 -8.55078,-72.81055 21.7396,-123.7123 117.56654,-231.9722 216.37695,-331.24414 z"
       style="color:#000000;font-style:normal;font-variant:normal;font-weight:normal;font-stretch:normal;font-size:medium;line-height:normal;font-family:sans-serif;font-variant-ligatures:normal;font-variant-position:normal;font-variant-caps:normal;font-variant-numeric:normal;font-variant-alternates:normal;font-variant-east-asian:normal;font-feature-settings:normal;font-variation-settings:normal;text-indent:0;text-align:start;text-decoration:none;text-decoration-line:none;text-decoration-style:solid;text-decoration-color:#000000;letter-spacing:normal;word-spacing:normal;text-transform:none;writing-mode:lr-tb;direction:ltr;text-orientation:mixed;dominant-baseline:auto;baseline-shift:baseline;text-anchor:start;white-space:normal;shape-padding:0;shape-margin:0;inline-size:0;clip-rule:nonzero;display:inline;overflow:visible;visibility:visible;opacity:1;isolation:auto;mix-blend-mode:normal;color-interpolation:sRGB;color-interpolation-filters:linearRGB;solid-color:#000000;solid-opacity:1;vector-effect:none;fill:#f48771;fill-opacity:1;fill-rule:nonzero;stroke:none;stroke-width:38.0832;stroke-linecap:butt;stroke-linejoin:miter;stroke-miterlimit:4;stroke-dasharray:none;stroke-dashoffset:0;stroke-opacity:1;color-rendering:auto;image-rendering:auto;shape-rendering:auto;text-rendering:auto;enable-background:accumulate;stop-color:#000000;stop-opacity:1" />
    <path
       transform="matrix(0.34737577,0,0,0.34737577,-35.468421,-36.780028)"
       id="path24-9"
       style="display:inline;opacity:1;fill:#f48771;fill-opacity:1;stroke:none;stroke-width:0.999999px;stroke-linecap:butt;stroke-linejoin:miter;stroke-opacity:1"
       d="m 237.79756,496.74962 c 79.93771,-67.69821 203.06047,-37.46702 201.20399,87.54808 -0.18113,12.19766 -7.81468,14.34825 -16.57489,5.85855 -42.28824,-40.98246 -105.52988,-69.1599 -178.43355,-76.47162 -12.14204,-1.21775 -15.50206,-9.05344 -6.19555,-16.93501 z m 551.20686,0 C 709.06671,429.05141 585.94395,459.2826 587.80043,584.2977 c 0.18113,12.19766 7.81468,14.34825 16.57489,5.85855 42.28824,-40.98246 105.52988,-69.1599 178.43355,-76.47162 12.14204,-1.21775 15.50206,-9.05344 6.19555,-16.93501 z" />
  </g>
</svg>
